<svg width="124" height="70" viewBox="0 0 124 70" fill="none" xmlns="http://www.w3.org/2000/svg">
<path d="M10.5978 18.7879C11.9547 19.2792 13.3467 20.1097 14.7738 21.2795C16.2243 22.4258 16.9495 24.1453 16.9495 26.438C16.9495 27.9353 16.4114 29.0348 15.3353 29.7367C14.2825 30.4151 13.2064 30.8245 12.1068 30.9649C11.0306 31.0819 9.896 31.1404 8.70286 31.1404L5.29892 31.2106L3.1583 31.2456C2.78398 31.2456 2.52664 31.1287 2.38627 30.8947C2.2459 30.6608 2.17572 30.3332 2.17572 29.9121L2.21081 22.1217V20.4373C2.21081 19.5482 2.2459 18.7411 2.31608 18.0159L2.42136 13.7346C2.42136 13.2434 2.43306 12.5181 2.45645 11.5589C2.47985 10.5763 2.50324 9.95638 2.52664 9.69904C2.55003 9.51188 2.56173 9.18436 2.56173 8.71646C2.56173 7.89764 2.52664 7.31277 2.45645 6.96185C2.43306 6.91506 2.42136 6.85657 2.42136 6.78639C2.42136 6.64602 2.55003 6.54074 2.80738 6.47056C3.04132 6.40038 3.66128 6.3068 4.66726 6.18982C5.67324 6.04945 6.58563 5.97927 7.40445 5.97927C9.62696 5.97927 11.3816 6.42377 12.6683 7.31277C13.9784 8.20178 14.6334 9.8862 14.6334 12.366C14.6334 14.6119 13.955 16.3666 12.5981 17.6299C11.9898 18.1446 11.3231 18.5306 10.5978 18.7879ZM6.77279 16.9982C6.77279 17.2322 6.76109 17.4427 6.7377 17.6299C6.71431 17.7936 6.70261 17.9223 6.70261 18.0159C6.70261 18.1563 6.71431 18.2498 6.7377 18.2966C6.76109 18.32 6.83128 18.3317 6.94825 18.3317C7.41615 18.3317 8.14139 18.203 9.12397 17.9457C10.1066 17.6884 11.054 17.1386 11.9664 16.2964C12.8788 15.4542 13.335 14.2376 13.335 12.6468C13.335 10.9624 13.0426 9.71074 12.4577 8.89192C11.8729 8.0731 11.1359 7.55842 10.2469 7.34787C9.38131 7.11392 8.27006 6.99694 6.91316 6.99694L6.84298 9.24284C6.79619 10.9273 6.77279 12.1789 6.77279 12.9977V16.9982ZM7.86065 30.4736C10.1533 30.4736 11.8729 30.111 13.0192 29.3858C14.1655 28.6371 14.7387 27.6428 14.7387 26.4029C14.7387 23.268 13.3935 21.1391 10.7031 20.0161C9.50998 19.5716 8.16478 19.3611 6.66752 19.3845C6.64412 19.4547 6.63242 19.5482 6.63242 19.6652C6.60903 19.7822 6.59733 20.0512 6.59733 20.4723L6.66752 22.7182L6.7377 24.6132C6.7377 24.9407 6.726 25.1747 6.70261 25.3151L6.66752 26.2275L6.7377 28.2979L6.80788 29.9121C6.80788 30.1929 6.85467 30.3683 6.94825 30.4385C7.06523 30.4853 7.21729 30.5087 7.40445 30.5087C7.615 30.4853 7.76707 30.4736 7.86065 30.4736ZM34.3454 6.50565C35.7491 7.44144 36.872 8.70476 37.7142 10.2956C38.5798 11.8865 39.1764 13.4422 39.5039 14.9629C39.8549 16.4601 40.0303 17.6416 40.0303 18.5072C40.0303 19.9577 39.7964 21.6421 39.3285 23.5605C38.884 25.4788 37.9131 27.2685 36.4158 28.9296C34.9186 30.5672 32.7545 31.386 29.9238 31.386C26.0402 31.386 23.2796 29.1284 21.642 24.6132C20.9168 22.5779 20.5074 20.3086 20.4138 17.8053C20.4138 15.7466 20.8466 13.7931 21.7122 11.9449C22.5778 10.0734 23.7124 8.57609 25.1161 7.45314C26.5432 6.33019 28.0054 5.76872 29.5027 5.76872C30.8596 5.76872 31.8655 5.80381 32.5206 5.87399C33.199 5.94418 33.8073 6.15473 34.3454 6.50565ZM29.7483 29.4209C32.2282 29.4209 34.0763 28.3915 35.2929 26.3327C36.5094 24.2506 37.1177 21.6421 37.1177 18.5072C37.1177 16.5888 36.8252 14.8225 36.2404 13.2083C35.6789 11.5706 34.8718 10.2722 33.819 9.31303C32.7896 8.33045 31.5965 7.83916 30.2396 7.83916C30.1226 7.83916 29.8068 7.83916 29.2921 7.83916C28.8008 7.83916 28.368 7.92104 27.9937 8.0848C27.6194 8.24856 27.2802 8.49421 26.976 8.82174C26.204 9.59377 25.5489 10.3073 25.0109 10.9624C24.4962 11.594 23.9698 12.5415 23.4317 13.8048C22.917 15.0681 22.6597 16.5303 22.6597 18.1914C22.6597 20.1565 22.8936 21.993 23.3615 23.7008C23.8528 25.3853 24.6248 26.7655 25.6776 27.8417C26.7304 28.8945 28.0873 29.4209 29.7483 29.4209ZM52.0905 6.15473C53.6814 6.15473 54.8862 6.42377 55.705 6.96185C56.5472 7.49993 57.1321 8.00292 57.4596 8.47082C57.7871 8.91532 57.9977 9.18436 58.0913 9.27794C58.2784 9.48849 58.372 9.71074 58.372 9.94469C58.372 10.2254 58.2667 10.4711 58.0562 10.6816C57.8456 10.8922 57.5766 11.1261 57.2491 11.3835C56.9449 11.6408 56.6642 11.8631 56.4068 12.0502C56.2899 12.1204 56.1846 12.1555 56.091 12.1555C55.8805 12.1555 55.6699 12.0502 55.4594 11.8397C55.4126 11.7929 55.0733 11.4069 54.4417 10.6816C53.81 9.93299 52.8625 9.55867 51.5992 9.55867C50.64 9.55867 49.8095 10.0734 49.1077 11.1027C48.4058 12.1087 47.8677 13.3369 47.4934 14.7874C47.1425 16.2145 46.9671 17.548 46.9671 18.7879C46.9671 20.0746 47.1542 21.4432 47.5285 22.8937C47.9028 24.3442 48.4994 25.5841 49.3182 26.6135C50.1604 27.6428 51.2132 28.1575 52.4765 28.1575C54.1609 28.1575 55.4477 27.5025 56.3367 26.1924C56.711 25.5841 56.9566 24.9174 57.0736 24.1921H56.0559L54.4768 24.157L50.9325 24.1219C50.5348 24.1219 50.3359 23.9348 50.3359 23.5605V22.1919C50.3359 21.9579 50.371 21.8175 50.4412 21.7708C50.5114 21.7006 50.6049 21.6655 50.7219 21.6655H52.3362L59.5301 21.49C59.7406 21.49 59.8927 21.5953 59.9863 21.8058C60.1032 22.0164 60.15 22.2971 60.1266 22.6481C60.1266 23.4669 59.9746 24.5313 59.6704 25.8414C59.3663 27.1282 58.6177 28.3915 57.4245 29.6314C56.2314 30.8479 54.4534 31.4562 52.0905 31.4562C50.3359 31.4562 48.8269 30.7894 47.5636 29.4559C46.3237 28.1224 45.3879 26.4146 44.7562 24.3325C44.148 22.227 43.8438 20.0746 43.8438 17.8755C43.8438 15.8168 44.2182 13.8867 44.9668 12.0853C45.7388 10.2839 46.7565 8.84513 48.0198 7.76897C49.3065 6.69281 50.6634 6.15473 52.0905 6.15473ZM70.6263 6.43547C72.0534 6.43547 73.5741 6.82148 75.1883 7.59351C76.8025 8.34214 78.2179 9.72244 79.4345 11.7344C80.651 13.7463 81.2592 16.4835 81.2592 19.946C81.2592 23.1043 80.4989 25.5022 78.9783 27.1399C77.481 28.7541 75.9018 29.7952 74.2408 30.2631C72.5798 30.7076 71.1995 30.9298 70.0999 30.9298L67.2224 30.9649C66.7077 30.9883 66.076 31 65.3274 31C64.8829 31 64.6606 30.6023 64.6606 29.8069L64.6957 28.8945L64.6255 27.1399L64.5905 25.5607L64.5554 24.5079C64.4618 23.2914 64.415 21.9111 64.415 20.3671C64.415 19.4547 64.4618 18.2498 64.5554 16.7526C64.6489 15.2553 64.6957 14.0271 64.6957 13.0679L64.6606 8.36554C64.6372 7.99122 64.6255 7.57012 64.6255 7.10222C64.6255 6.84488 64.7893 6.69281 65.1168 6.64602C65.4678 6.57584 65.8304 6.55244 66.2047 6.57584C66.579 6.57584 66.8364 6.57584 66.9767 6.57584L68.24 6.50565C69.2226 6.45886 70.018 6.43547 70.6263 6.43547ZM70.6965 23.4903C71.3282 23.1861 71.913 22.765 72.4511 22.227C73.6208 21.104 74.2057 19.7705 74.2057 18.2264C74.2057 16.7526 73.6442 15.5711 72.5213 14.6821C72.03 14.3078 71.4802 14.0271 70.872 13.8399C70.9187 14.3546 70.9421 14.7523 70.9421 15.0331C70.9421 15.4776 70.9187 16.1209 70.872 16.9631C70.8252 17.7585 70.8018 18.3434 70.8018 18.7177C70.8018 19.326 70.7784 20.3086 70.7316 21.6655C70.7082 22.0632 70.6965 22.6715 70.6965 23.4903ZM100.846 30.5087C100.916 30.6725 100.951 30.7894 100.951 30.8596C100.951 30.9532 100.823 31 100.565 31H98.6C98.5064 31 98.4245 30.9883 98.3544 30.9649C98.3076 30.9181 98.2608 30.8245 98.214 30.6842C98.1204 30.4268 97.9917 30.0057 97.828 29.4209C97.6174 28.836 97.477 28.3096 97.4069 27.8417C97.3367 27.4908 97.2197 27.0697 97.0559 26.5784C96.9156 26.0871 96.7869 25.7128 96.6699 25.4554C96.4594 25.0109 96.2722 24.5079 96.1085 23.9465L95.7926 22.9288C95.6756 22.6715 95.5821 22.5194 95.5119 22.4726C95.4651 22.4024 95.3715 22.3673 95.2311 22.3673C94.7399 22.3673 94.3772 22.379 94.1433 22.4024L92.6343 22.4726C92.4472 22.496 91.5816 22.5077 90.0375 22.5077H87.8969H87.8267C87.6863 22.5077 87.581 22.6364 87.5109 22.8937L87.4407 23.2446L87.3003 23.9114C87.2535 24.0284 87.1015 24.7068 86.8441 25.9467C86.7739 26.3444 86.657 26.8591 86.4932 27.4908C86.4464 27.9587 86.3411 28.3447 86.1774 28.6488C86.1306 28.719 86.0721 28.8828 86.0019 29.1401C85.9317 29.3975 85.8732 29.608 85.8264 29.7718C85.7563 29.9589 85.6744 30.2631 85.5808 30.6842C85.5574 30.7076 85.534 30.7661 85.5106 30.8596C85.4872 30.9298 85.4521 30.9766 85.4053 31C85.3585 31 85.2884 31 85.1948 31H84.4929C84.2824 31 84.2239 30.8479 84.3175 30.5438C84.3175 30.4736 84.3292 30.4151 84.3526 30.3683C84.3526 30.3216 84.3643 30.2631 84.3877 30.1929C84.4111 30.1227 84.4461 30.0174 84.4929 29.877L84.8088 28.5786C84.8556 28.4383 84.9374 28.1926 85.0544 27.8417C85.1714 27.4908 85.2533 27.1633 85.3001 26.8591C85.417 26.2976 85.6393 25.4437 85.9668 24.2974L86.2475 23.3148C86.692 21.8643 86.9728 20.8467 87.0898 20.2618L87.581 18.4019C87.815 17.6299 87.9554 17.1386 88.0022 16.928C88.1659 16.2262 88.3999 15.3489 88.704 14.2961L88.9496 13.3135L89.1602 12.5766C89.3941 11.7812 89.593 11.208 89.7568 10.8571C89.8036 10.7167 89.9673 10.2371 90.2481 9.41831C90.5522 8.57609 90.751 7.90934 90.8446 7.41805C91.0084 6.85657 91.1722 6.43547 91.3359 6.15473C91.5231 5.87399 91.7687 5.73363 92.0729 5.73363C92.1898 5.73363 92.3068 5.8389 92.4238 6.04945C92.5407 6.26001 92.6577 6.51735 92.7747 6.82148C92.8917 7.12561 92.9735 7.34787 93.0203 7.48823C93.2075 7.93274 93.535 9.04399 94.0029 10.822L94.2837 11.8046C94.3071 11.9917 94.6931 13.1381 95.4417 15.2436L96.1085 17.1737L96.7401 18.823C97.3952 20.6712 97.8163 21.7941 98.0034 22.1919C98.8222 24.6717 99.3018 26.169 99.4422 26.6837C99.606 27.2919 99.8633 28.0523 100.214 28.9647C100.589 29.877 100.799 30.3917 100.846 30.5087ZM94.2837 20.0863C94.5878 20.0863 94.7399 20.0044 94.7399 19.8407C94.7399 19.7237 94.658 19.4664 94.4942 19.0687C94.3538 18.7177 94.1433 18.0627 93.8626 17.1035C93.652 16.3315 93.4414 15.6647 93.2309 15.1032C92.9969 14.4014 92.7396 13.5709 92.4589 12.6117C92.2015 11.6525 92.0495 11.0325 92.0027 10.7518C91.6517 9.51188 91.4178 8.89192 91.3008 8.89192C91.2306 8.89192 91.1137 9.20775 90.9499 9.83941L90.7393 10.6114C90.5756 11.2431 90.365 12.0385 90.1077 12.9977C89.8503 13.9335 89.6164 14.7289 89.4058 15.384C89.2655 15.9922 89.0666 16.7643 88.8093 17.7001C88.5753 18.6125 88.3882 19.2441 88.2478 19.595C88.201 19.7354 88.1776 19.8173 88.1776 19.8407C88.1776 20.0044 88.2478 20.1097 88.3882 20.1565C88.5519 20.2033 88.704 20.2267 88.8444 20.2267C89.0081 20.2033 89.1134 20.1916 89.1602 20.1916L91.1955 20.1214C91.4763 20.0746 91.874 20.0512 92.3887 20.0512L94.2837 20.0863ZM114.421 9.13757C114.421 7.68709 114.433 6.78639 114.456 6.43547C114.456 5.99097 114.608 5.72193 114.912 5.62835C115.216 5.53477 115.661 5.48798 116.246 5.48798C116.76 5.48798 117.415 5.46458 118.211 5.4178C119.03 5.34761 119.661 5.27743 120.106 5.20724C120.433 5.18385 120.667 5.24233 120.808 5.3827C120.948 5.49968 121.018 5.71023 121.018 6.01436C121.018 6.10794 120.995 6.36528 120.948 6.78639C120.901 7.13731 120.878 9.46509 120.878 13.7697V21.7006C120.878 22.8937 120.889 24.2155 120.913 25.666C120.96 27.0931 121.006 28.3798 121.053 29.5261C121.1 30.6725 121.123 30.9883 121.123 30.4736C121.123 30.8479 120.936 31.0351 120.562 31.0351C120.398 31.0351 120.258 31.0234 120.141 31C120.047 30.9766 119.86 30.9649 119.579 30.9649C119.299 30.9649 118.854 30.9883 118.246 31.0351C117.591 31.0819 117.135 31.1053 116.877 31.1053C116.433 31.1053 116.094 31.0117 115.86 30.8245C115.649 30.6374 115.427 30.2982 115.193 29.8069L114.596 28.6137C113.894 27.0463 113.274 25.8181 112.736 24.9291C112.432 24.4144 111.66 22.999 110.42 20.6829L108.876 17.7702V19.1037V19.9109C108.876 20.098 108.865 20.332 108.841 20.6127C108.841 20.8935 108.853 21.2093 108.876 21.5602C108.876 22.7767 108.888 24.3676 108.911 26.3327C108.958 28.2979 109.017 29.4793 109.087 29.877C109.11 29.994 109.122 30.1344 109.122 30.2982C109.122 30.5321 109.075 30.6842 108.982 30.7544C108.888 30.8011 108.712 30.8128 108.455 30.7894C108.081 30.7894 107.636 30.8128 107.122 30.8596C106.63 30.9064 106.162 30.9532 105.718 31C105.367 31.0468 105.133 30.9883 105.016 30.8245C104.923 30.6608 104.887 30.2982 104.911 29.7367C104.911 28.8945 104.876 27.4089 104.806 25.28C104.712 23.0575 104.653 21.1274 104.63 19.4898C104.63 17.8287 104.665 16.1443 104.735 14.4365C104.782 12.2842 104.806 10.8103 104.806 10.0149C104.806 8.93871 104.77 8.15499 104.7 7.6637C104.653 7.24259 104.63 6.97355 104.63 6.85658C104.63 6.43547 104.7 6.15473 104.841 6.01436C104.981 5.8506 105.168 5.76872 105.402 5.76872C105.519 5.76872 105.753 5.78041 106.104 5.80381C106.455 5.80381 106.958 5.72193 107.613 5.55816C107.87 5.51137 108.128 5.48798 108.385 5.48798C108.525 5.48798 108.724 5.49968 108.982 5.52307C109.239 5.54647 109.578 5.55816 109.999 5.55816C110.537 5.55816 110.982 5.76872 111.333 6.18982C111.707 6.61093 112.105 7.2075 112.526 7.97953L112.877 8.61118C113.157 9.12587 113.497 9.67565 113.894 10.2605L114.421 11.0676V9.13757Z" fill="#333333"/>
<path d="M8.84323 39.9134C8.74965 41.8318 8.70286 43.2706 8.70286 44.2298L8.77305 49.5287C8.79644 50.3709 8.80814 51.2365 8.80814 52.1255L8.73795 55.9506L8.70286 56.6524L8.73795 57.635L8.80814 58.8632L13.8263 59.0387L18.0023 59.0738H18.0725C18.2128 59.0738 18.2947 59.0972 18.3181 59.1439C18.3415 59.1907 18.3415 59.2609 18.3181 59.3545C18.3181 59.4247 18.3181 59.4832 18.3181 59.53C18.2947 59.6235 18.2947 59.799 18.3181 60.0563C18.3649 60.3137 18.3883 60.5476 18.3883 60.7582C18.3883 60.9219 18.3298 61.0272 18.2128 61.074C18.0959 61.1208 17.9438 61.1325 17.7566 61.1091C17.5929 61.1091 17.4642 61.1091 17.3706 61.1091L15.5107 61.0038C13.8731 60.8635 12.7151 60.7933 12.0366 60.7933C11.288 60.7933 9.39301 60.8635 6.35169 61.0038L3.1583 61.1091C2.64361 61.1091 2.38627 60.8752 2.38627 60.4073V57.6701L2.52664 45.9142C2.52664 45.0252 2.46815 43.4109 2.35118 41.0715L2.21081 36.7551C2.21081 36.3574 2.36287 36.1586 2.66701 36.1586C2.78398 36.1586 2.98284 36.1937 3.26357 36.2638C3.54431 36.334 3.76656 36.3691 3.93032 36.3691C4.58538 36.4627 5.3691 36.5095 6.2815 36.5095C6.91316 36.5095 7.50973 36.4744 8.0712 36.4042C8.42212 36.3574 8.66777 36.3808 8.80814 36.4744C8.94851 36.568 9.01869 36.72 9.01869 36.9306C9.01869 37.0944 8.9953 37.2698 8.94851 37.457C8.92511 37.6207 8.91342 37.8079 8.91342 38.0184L8.84323 39.9134ZM33.7381 36.334C35.1418 37.2698 36.2648 38.5331 37.107 40.124C37.9726 41.7148 38.5691 43.2706 38.8967 44.7912C39.2476 46.2885 39.4231 47.4699 39.4231 48.3356C39.4231 49.786 39.1891 51.4705 38.7212 53.3888C38.2767 55.3072 37.3058 57.0969 35.8086 58.7579C34.3113 60.3956 32.1473 61.2144 29.3165 61.2144C25.433 61.2144 22.6724 58.9568 21.0347 54.4416C20.3095 52.4062 19.9001 50.1369 19.8065 47.6337C19.8065 45.575 20.2393 43.6215 21.1049 41.7733C21.9705 39.9017 23.1052 38.4045 24.5089 37.2815C25.936 36.1586 27.3981 35.5971 28.8954 35.5971C30.2523 35.5971 31.2583 35.6322 31.9133 35.7024C32.5918 35.7725 33.2 35.9831 33.7381 36.334ZM29.141 59.2492C31.6209 59.2492 33.4691 58.2198 34.6856 56.1611C35.9021 54.079 36.5104 51.4705 36.5104 48.3356C36.5104 46.4172 36.218 44.6509 35.6331 43.0366C35.0716 41.399 34.2645 40.1006 33.2117 39.1414C32.1824 38.1588 30.9892 37.6675 29.6323 37.6675C29.5154 37.6675 29.1995 37.6675 28.6848 37.6675C28.1936 37.6675 27.7608 37.7494 27.3864 37.9132C27.0121 38.0769 26.6729 38.3226 26.3688 38.6501C25.5967 39.4221 24.9417 40.1357 24.4036 40.7907C23.8889 41.4224 23.3625 42.3699 22.8245 43.6332C22.3098 44.8965 22.0524 46.3587 22.0524 48.0197C22.0524 49.9849 22.2864 51.8214 22.7543 53.5292C23.2456 55.2136 24.0176 56.5939 25.0704 57.6701C26.1231 58.7228 27.48 59.2492 29.141 59.2492ZM45.7281 37.1762C45.7749 37.7143 45.8802 38.2992 46.044 38.9308C46.2311 39.5625 46.4885 40.3813 46.816 41.3873C47.0499 42.1125 47.6465 43.7385 48.6057 46.2651C49.5883 48.7917 50.2433 50.4177 50.5709 51.1429C50.875 51.915 51.2844 53.0964 51.7991 54.6872L52.5711 57.0735L53.0273 56.2664L54.0099 54.3363C54.1503 54.0088 54.5831 53.1549 55.3083 51.7746C56.829 48.9438 57.8232 46.9787 58.2911 45.8791C58.6421 45.0603 59.145 43.9607 59.8001 42.5804C59.9639 42.2061 60.1627 41.7616 60.3967 41.2469C60.654 40.7088 60.8295 40.3228 60.9231 40.0889C60.9698 39.9485 61.1102 39.5157 61.3442 38.7905C61.6015 38.0418 61.8471 37.4102 62.0811 36.8955C62.3384 36.3808 62.549 36.1235 62.7128 36.1235C62.8999 36.1235 62.9935 36.3925 62.9935 36.9306C62.9935 37.2347 62.9818 37.5389 62.9584 37.843C62.935 38.1237 62.9116 38.3811 62.8882 38.615L62.7829 39.8783C62.7128 41.0949 62.6777 43.3408 62.6777 46.616C62.6777 47.7624 62.6543 49.2246 62.6075 51.0026C62.5841 52.7572 62.549 53.9386 62.5022 54.5469L62.4671 60.2669V60.3722C62.4671 60.6061 62.3384 60.7231 62.0811 60.7231C61.4494 60.7231 61.04 60.7114 60.8529 60.688C60.7359 60.6646 60.6774 60.571 60.6774 60.4073L60.7125 59.8107C60.7125 58.8047 60.7359 57.1671 60.7827 54.8978C60.8295 52.6051 60.888 51.0844 60.9581 50.3358C60.9815 49.7743 60.9932 48.5929 60.9932 46.7915C60.9932 45.8089 60.9815 45.0603 60.9581 44.5456C60.4669 45.4112 60.1744 45.9493 60.0808 46.1598C59.8937 46.4874 59.6246 47.002 59.2737 47.7039C59.2035 47.8443 59.1217 48.008 59.0281 48.1952C58.9345 48.3823 58.8292 48.5695 58.7122 48.7567C58.4081 49.3649 57.7297 50.7335 56.6769 52.8624L55.5539 55.1785C55.32 55.5762 54.934 56.3015 54.3959 57.3542C53.8578 58.407 53.4952 59.1205 53.308 59.4949L52.7466 60.6178C52.6062 60.9219 52.4307 61.191 52.2202 61.4249C52.033 61.6589 51.8693 61.7759 51.7289 61.7759C51.5885 61.7759 51.4833 61.7408 51.4131 61.6706C51.3663 61.6004 51.3195 61.4834 51.2727 61.3197C51.2259 61.1793 51.1908 61.074 51.1674 61.0038C51.1206 60.8635 50.8633 60.1265 50.3954 58.793C49.9275 57.4361 49.5649 56.4652 49.3075 55.8804C48.98 55.0849 48.5589 54.0439 48.0442 52.7572C47.5295 51.4705 47.1903 50.5464 47.0265 49.9849C46.816 49.4 46.6288 48.8385 46.4651 48.3005L45.9387 46.6511C45.4942 45.341 45.2368 44.5573 45.1667 44.2999L45.0965 45.5984C45.0731 46.0897 45.0614 46.8383 45.0614 47.8443C45.0614 51.1663 45.0146 53.4824 44.921 54.7925C44.8976 55.12 44.8859 55.7868 44.8859 56.7928L44.921 60.3371V60.4424C44.921 60.8635 44.7572 61.0506 44.4297 61.0038C44.3127 60.957 44.1256 60.9336 43.8682 60.9336C43.6109 60.9336 43.4237 60.9336 43.3068 60.9336C43.1898 60.9336 43.1313 60.8518 43.1313 60.688L43.1664 60.0563L43.0962 56.6875L42.9909 49.3532C42.9909 48.1601 43.0143 46.733 43.0611 45.072C43.1079 43.3876 43.1547 42.2529 43.2015 41.668C43.2717 40.896 43.3185 40.0538 43.3419 39.1414C43.3887 38.2056 43.412 37.4453 43.412 36.8604V36.72C43.412 36.4159 43.4471 36.2521 43.5173 36.2287C43.5875 36.182 43.7045 36.1703 43.8682 36.1937H44.149C44.5233 36.1937 44.8157 36.182 45.0263 36.1586C45.424 36.1586 45.6579 36.4978 45.7281 37.1762ZM74.6241 35.7725C76.9636 35.7725 78.7182 36.451 79.8879 37.8079C81.0576 39.1414 81.8063 40.7322 82.1338 42.5804C82.4613 44.4052 82.6251 46.4757 82.6251 48.7917C82.6251 50.6633 82.3444 52.5934 81.7829 54.582C81.2214 56.5471 80.3558 58.2082 79.1861 59.5651C78.0163 60.9219 76.5775 61.6004 74.8697 61.6004C71.5243 61.6004 69.3018 60.1967 68.2022 57.3893C67.1027 54.5586 66.5529 51.5289 66.5529 48.3005C66.5529 45.189 66.974 42.6974 67.8162 40.8258C68.6818 38.9542 69.7229 37.6441 70.9394 36.8955C72.1793 36.1469 73.4076 35.7725 74.6241 35.7725ZM74.589 52.687C75.2206 52.687 75.6885 52.3361 75.9927 51.6342C76.2968 50.9324 76.4489 50.0902 76.4489 49.1076C76.4489 48.1718 76.2968 47.353 75.9927 46.6511C75.7119 45.9493 75.3259 45.5984 74.8346 45.5984C74.2498 45.5984 73.8053 46.0078 73.5011 46.8266C73.2204 47.622 73.08 48.4876 73.08 49.4234C73.08 50.3826 73.1736 51.1663 73.3608 51.7746C73.5479 52.3828 73.9573 52.687 74.589 52.687ZM102.485 37.0359C102.485 37.1528 102.462 37.457 102.415 37.9483C102.392 38.4396 102.38 39.0478 102.38 39.7731C102.38 40.4281 102.415 41.3171 102.485 42.4401C102.485 43.0717 102.076 43.3876 101.257 43.3876H95.0809L95.0107 47.002C94.9873 47.3998 94.9756 48.394 94.9756 49.9849C94.9756 51.6225 94.9873 53.2134 95.0107 54.7574C95.0341 56.3015 95.0458 57.635 95.0458 58.7579L95.0809 60.1967V60.3722C95.0809 60.5827 95.0458 60.7114 94.9756 60.7582C94.9288 60.805 94.8587 60.8284 94.7651 60.8284C94.6715 60.8284 94.6013 60.8284 94.5545 60.8284H92.1683C91.8875 60.8284 91.7238 60.7816 91.677 60.688C91.6302 60.5944 91.6068 60.4307 91.6068 60.1967C91.6068 59.9394 91.6068 59.7522 91.6068 59.6352L91.7471 55.2838C91.8875 51.4938 91.9577 49.0608 91.9577 47.9846C91.9577 47.3764 91.9343 46.464 91.8875 45.2474L91.8524 43.3876C90.168 43.3876 88.4602 43.4109 86.729 43.4577L85.6411 43.4928C85.337 43.4928 85.1264 43.4109 85.0094 43.2472C84.8925 43.0834 84.8691 42.8963 84.9393 42.6857L84.9744 41.8084C85.0211 40.4515 85.0445 39.1999 85.0445 38.0535C85.0445 37.4921 85.0328 37.1528 85.0094 37.0359V36.7902C85.0094 36.5329 85.0562 36.3808 85.1498 36.334C85.2668 36.2872 85.4306 36.2638 85.6411 36.2638H89.1152L91.0804 36.2287C92.2969 36.182 93.1508 36.1586 93.6421 36.1586L95.7477 36.1937C97.4321 36.2404 98.7539 36.2638 99.7131 36.2638C100.415 36.2638 100.871 36.2521 101.082 36.2287C101.596 36.2054 101.959 36.2872 102.17 36.4744C102.38 36.6382 102.485 36.8253 102.485 37.0359ZM123.154 60.1265C123.271 60.3605 123.33 60.5125 123.33 60.5827C123.33 60.7699 123.119 60.8635 122.698 60.8635H120.172C120.078 60.8635 119.984 60.7816 119.891 60.6178C119.797 60.4541 119.715 60.2903 119.645 60.1265C119.575 59.9628 119.516 59.8224 119.47 59.7054C119.353 59.4715 119.13 58.9334 118.803 58.0912C118.499 57.249 118.265 56.5822 118.101 56.0909C118.031 55.857 117.891 55.5178 117.68 55.0733C117.469 54.6054 117.317 54.2778 117.224 54.0907C117.13 53.8099 117.037 53.6228 116.943 53.5292C116.873 53.4356 116.756 53.3888 116.592 53.3888C116.428 53.3888 116.218 53.4005 115.96 53.4239C115.727 53.4473 115.469 53.4707 115.188 53.4941C115.001 53.5409 114.416 53.5643 113.434 53.5643C112.755 53.5643 112.089 53.5877 111.434 53.6345C111.223 53.6579 110.849 53.6696 110.311 53.6696L108.451 53.6345C108.334 53.6345 108.24 53.6813 108.17 53.7748C108.123 53.8684 108.088 53.9854 108.065 54.1258C108.041 54.2427 108.018 54.3363 107.995 54.4065L107.784 55.2838C107.714 55.6113 107.62 55.9973 107.503 56.4418C107.41 56.863 107.328 57.2607 107.258 57.635L106.872 59.1439L106.591 60.1616C106.521 60.4424 106.451 60.6295 106.38 60.7231C106.334 60.7933 106.252 60.8284 106.135 60.8284H104.064C103.947 60.8284 103.889 60.7816 103.889 60.688C103.889 60.6412 103.936 60.4774 104.029 60.1967C104.216 59.7522 104.38 59.3077 104.52 58.8632C105.386 55.9623 105.901 54.0673 106.064 53.1783C106.275 52.0085 106.708 50.4996 107.363 48.6514C107.573 47.856 107.772 47.1307 107.959 46.4757C108.03 46.1481 108.135 45.7504 108.275 45.2825C108.72 43.6449 109.164 42.1125 109.609 40.6855L110.486 37.8781C110.673 37.1528 110.907 36.4042 111.188 35.6322C111.328 35.2813 111.492 35.1994 111.679 35.3865C111.82 35.4801 111.925 35.6439 111.995 35.8778C112.065 36.1118 112.112 36.2755 112.135 36.3691C112.206 36.6499 112.826 38.0535 113.995 40.5802C114.463 41.5394 114.966 42.791 115.504 44.335C115.738 45.0135 116.382 46.4757 117.434 48.7216C117.972 49.8211 118.323 50.5815 118.487 51.0026C118.861 51.8214 119.867 53.8099 121.505 56.9682L121.926 57.8455C122.464 59.0387 122.874 59.799 123.154 60.1265ZM113.96 48.5461C114.124 48.5227 114.264 48.511 114.381 48.511C114.498 48.511 114.592 48.4993 114.662 48.4759C114.732 48.4525 114.767 48.4174 114.767 48.3706C114.767 48.3239 114.732 48.2303 114.662 48.0899C114.545 47.8794 114.276 47.2945 113.855 46.3353C113.434 45.3527 113.141 44.6158 112.978 44.1245C112.744 43.563 112.557 43.0951 112.416 42.7208C112.299 42.3465 112.206 42.0891 112.135 41.9488C112.089 41.8318 112.03 41.7148 111.96 41.5978C111.913 41.4809 111.866 41.3873 111.82 41.3171C111.773 41.2469 111.726 41.2118 111.679 41.2118C111.609 41.2118 111.527 41.3873 111.434 41.7382C111.363 42.0891 111.305 42.3582 111.258 42.5453C110.837 43.9022 110.533 44.9316 110.346 45.6335C110.252 45.9844 110.112 46.4172 109.925 46.9319C109.761 47.4232 109.644 47.7624 109.574 47.9495C109.504 48.1835 109.468 48.3706 109.468 48.511C109.468 48.6514 109.574 48.7216 109.784 48.7216C110.276 48.7216 111.024 48.7099 112.03 48.6865C113.06 48.6397 113.703 48.5929 113.96 48.5461Z" fill="#333333"/>
<circle cx="26.5" cy="54.5" r="3.5" fill="#333333"/>
<ellipse cx="30" cy="18.5" rx="8" ry="11.5" fill="#333333"/>
<circle cx="33.5" cy="13.5" r="3.5" fill="#FCFCFC"/>
</svg>
