<svg width="400" height="400" viewBox="0 0 400 400" fill="none" xmlns="http://www.w3.org/2000/svg">
<rect width="400" height="400" fill="white"/>
<path d="M148.238 268.235C143.953 255.392 125.023 251.884 116.095 251.736C104.636 249.506 86.183 254.411 77.2542 241.925C52.035 206.657 82.0884 209.937 57.0877 163.113C39.7718 130.682 63.2719 107.606 79.355 96.484C86.9751 91.2145 96.8571 92.1498 105.475 95.552C122.7 102.353 153.631 108.697 179.936 82.7235C218.776 44.3726 274.352 66.9272 283.956 88.9667C291.718 106.778 291.099 119.737 316.547 158.534C336.904 189.571 320.199 220.402 305.582 226.248C289.063 227.437 262.315 226.248 245.359 260.738C229.03 293.953 187.079 291.127 169.668 285.627C164.31 285.181 152.524 281.079 148.238 268.235Z" fill="#DADADA"/>
<path d="M159.238 271.304C154.953 258.503 136.023 255.007 127.095 254.859C115.636 252.636 97.183 257.526 88.2542 245.08C63.035 209.929 93.0884 213.198 68.0877 166.529C53.5904 139.466 67.703 118.94 82.1198 106.469C94.0235 96.1725 111.156 98.3919 126.362 102.454C144.087 107.189 169.105 107.89 190.936 86.4053C229.776 48.1811 283.839 71.5565 294.956 92.6279C303.999 109.768 302.099 123.296 327.547 161.965C347.904 192.9 331.199 223.629 316.582 229.455C297.872 241.691 273.315 229.455 256.359 263.832C240.03 296.936 198.079 294.12 180.668 288.638C175.31 288.194 163.524 284.105 159.238 271.304Z" fill="#F8F8F8"/>
<path d="M129 128.514C131.31 132.486 135.93 140.546 135.93 141L150.944 138.162L170 131.919L166.535 125.676L157.873 121.135L154.986 120L155.563 135.892L152.099 137.027L149.211 135.892L142.859 130.216L130.732 126.243L129 128.514Z" fill="white"/>
<path d="M126.076 331.768V349H124.78C124.58 349 124.412 348.964 124.276 348.892C124.148 348.82 124.016 348.704 123.88 348.544L114.148 335.956C114.164 336.172 114.176 336.384 114.184 336.592C114.2 336.8 114.208 336.996 114.208 337.18V349H111.964V331.768H113.284C113.508 331.768 113.676 331.796 113.788 331.852C113.9 331.9 114.024 332.016 114.16 332.2L123.916 344.8C123.892 344.568 123.872 344.344 123.856 344.128C123.848 343.904 123.844 343.696 123.844 343.504V331.768H126.076ZM134.68 336.616C135.576 336.616 136.384 336.764 137.104 337.06C137.832 337.348 138.448 337.768 138.952 338.32C139.464 338.864 139.856 339.524 140.128 340.3C140.4 341.068 140.536 341.932 140.536 342.892C140.536 343.852 140.4 344.72 140.128 345.496C139.856 346.272 139.464 346.932 138.952 347.476C138.448 348.02 137.832 348.44 137.104 348.736C136.384 349.024 135.576 349.168 134.68 349.168C133.776 349.168 132.96 349.024 132.232 348.736C131.512 348.44 130.896 348.02 130.384 347.476C129.872 346.932 129.476 346.272 129.196 345.496C128.924 344.72 128.788 343.852 128.788 342.892C128.788 341.932 128.924 341.068 129.196 340.3C129.476 339.524 129.872 338.864 130.384 338.32C130.896 337.768 131.512 337.348 132.232 337.06C132.96 336.764 133.776 336.616 134.68 336.616ZM134.68 347.344C135.832 347.344 136.692 346.956 137.26 346.18C137.828 345.404 138.112 344.312 138.112 342.904C138.112 341.496 137.828 340.404 137.26 339.628C136.692 338.844 135.832 338.452 134.68 338.452C133.512 338.452 132.64 338.844 132.064 339.628C131.496 340.404 131.212 341.496 131.212 342.904C131.212 344.312 131.496 345.404 132.064 346.18C132.64 346.956 133.512 347.344 134.68 347.344ZM146.73 349.192C145.746 349.192 144.986 348.916 144.45 348.364C143.922 347.812 143.658 347.024 143.658 346V338.704H142.242C142.106 338.704 141.99 338.664 141.894 338.584C141.806 338.496 141.762 338.368 141.762 338.2V337.252L143.742 336.976L144.27 333.34C144.302 333.204 144.362 333.1 144.45 333.028C144.546 332.948 144.666 332.908 144.81 332.908H145.998V337H149.454V338.704H145.998V345.844C145.998 346.324 146.114 346.684 146.346 346.924C146.586 347.156 146.89 347.272 147.258 347.272C147.474 347.272 147.658 347.244 147.81 347.188C147.97 347.132 148.106 347.072 148.218 347.008C148.33 346.936 148.426 346.872 148.506 346.816C148.586 346.76 148.658 346.732 148.722 346.732C148.802 346.732 148.862 346.752 148.902 346.792C148.95 346.824 148.998 346.88 149.046 346.96L149.742 348.088C149.358 348.44 148.902 348.712 148.374 348.904C147.846 349.096 147.298 349.192 146.73 349.192ZM166.518 342.58L163.962 335.896C163.778 335.44 163.594 334.864 163.41 334.168C163.322 334.512 163.23 334.832 163.134 335.128C163.046 335.424 162.958 335.688 162.87 335.92L160.326 342.58H166.518ZM171.57 349H169.602C169.378 349 169.194 348.944 169.05 348.832C168.906 348.72 168.802 348.576 168.738 348.4L167.214 344.404H159.618L158.094 348.4C158.038 348.552 157.934 348.692 157.782 348.82C157.63 348.94 157.446 349 157.23 349H155.262L162.126 331.768H164.706L171.57 349ZM182.865 336.808L177.921 349H175.809L170.865 336.808H172.797C172.981 336.808 173.133 336.852 173.253 336.94C173.373 337.028 173.453 337.14 173.493 337.276L176.409 344.764C176.513 345.076 176.601 345.388 176.673 345.7C176.753 346.004 176.825 346.308 176.889 346.612C176.953 346.308 177.025 346.004 177.105 345.7C177.185 345.396 177.281 345.084 177.393 344.764L180.345 337.276C180.393 337.14 180.477 337.028 180.597 336.94C180.717 336.852 180.861 336.808 181.029 336.808H182.865ZM190.997 343.588C190.045 343.62 189.237 343.696 188.573 343.816C187.909 343.928 187.369 344.08 186.953 344.272C186.537 344.464 186.237 344.692 186.053 344.956C185.869 345.212 185.777 345.5 185.777 345.82C185.777 346.124 185.825 346.388 185.921 346.612C186.025 346.828 186.161 347.008 186.329 347.152C186.505 347.288 186.709 347.388 186.941 347.452C187.173 347.516 187.425 347.548 187.697 347.548C188.057 347.548 188.385 347.512 188.681 347.44C188.985 347.368 189.269 347.268 189.533 347.14C189.797 347.004 190.049 346.84 190.289 346.648C190.529 346.456 190.765 346.236 190.997 345.988V343.588ZM184.133 338.512C184.813 337.864 185.549 337.38 186.341 337.06C187.141 336.74 188.017 336.58 188.969 336.58C189.665 336.58 190.281 336.696 190.817 336.928C191.353 337.152 191.805 337.468 192.173 337.876C192.541 338.284 192.817 338.772 193.001 339.34C193.193 339.908 193.289 340.536 193.289 341.224V349H192.245C192.013 349 191.837 348.964 191.717 348.892C191.597 348.812 191.501 348.668 191.429 348.46L191.177 347.392C190.865 347.68 190.557 347.936 190.253 348.16C189.949 348.376 189.629 348.564 189.293 348.724C188.965 348.876 188.613 348.992 188.237 349.072C187.861 349.152 187.445 349.192 186.989 349.192C186.509 349.192 186.057 349.128 185.633 349C185.217 348.864 184.853 348.66 184.541 348.388C184.229 348.116 183.981 347.776 183.797 347.368C183.621 346.96 183.533 346.484 183.533 345.94C183.533 345.46 183.661 345 183.917 344.56C184.181 344.112 184.605 343.712 185.189 343.36C185.781 343.008 186.549 342.72 187.493 342.496C188.445 342.272 189.613 342.144 190.997 342.112V341.224C190.997 340.304 190.801 339.616 190.409 339.16C190.017 338.704 189.441 338.476 188.681 338.476C188.169 338.476 187.737 338.54 187.385 338.668C187.041 338.796 186.741 338.94 186.485 339.1C186.237 339.252 186.017 339.392 185.825 339.52C185.641 339.648 185.449 339.712 185.249 339.712C185.089 339.712 184.949 339.668 184.829 339.58C184.717 339.492 184.625 339.388 184.553 339.268L184.133 338.512ZM198.869 336.808V349H196.529V336.808H198.869ZM199.313 333.04C199.313 333.256 199.269 333.464 199.181 333.664C199.093 333.856 198.973 334.028 198.821 334.18C198.677 334.324 198.505 334.44 198.305 334.528C198.105 334.608 197.897 334.648 197.681 334.648C197.465 334.648 197.261 334.608 197.069 334.528C196.877 334.44 196.705 334.324 196.553 334.18C196.409 334.028 196.293 333.856 196.205 333.664C196.125 333.464 196.085 333.256 196.085 333.04C196.085 332.816 196.125 332.608 196.205 332.416C196.293 332.216 196.409 332.044 196.553 331.9C196.705 331.748 196.877 331.632 197.069 331.552C197.261 331.464 197.465 331.42 197.681 331.42C197.897 331.42 198.105 331.464 198.305 331.552C198.505 331.632 198.677 331.748 198.821 331.9C198.973 332.044 199.093 332.216 199.181 332.416C199.269 332.608 199.313 332.816 199.313 333.04ZM204.657 331.288V349H202.305V331.288H204.657ZM214.551 343.588C213.599 343.62 212.791 343.696 212.127 343.816C211.463 343.928 210.923 344.08 210.507 344.272C210.091 344.464 209.791 344.692 209.607 344.956C209.423 345.212 209.331 345.5 209.331 345.82C209.331 346.124 209.379 346.388 209.475 346.612C209.579 346.828 209.715 347.008 209.883 347.152C210.059 347.288 210.263 347.388 210.495 347.452C210.727 347.516 210.979 347.548 211.251 347.548C211.611 347.548 211.939 347.512 212.235 347.44C212.539 347.368 212.823 347.268 213.087 347.14C213.351 347.004 213.603 346.84 213.843 346.648C214.083 346.456 214.319 346.236 214.551 345.988V343.588ZM207.687 338.512C208.367 337.864 209.103 337.38 209.895 337.06C210.695 336.74 211.571 336.58 212.523 336.58C213.219 336.58 213.835 336.696 214.371 336.928C214.907 337.152 215.359 337.468 215.727 337.876C216.095 338.284 216.371 338.772 216.555 339.34C216.747 339.908 216.843 340.536 216.843 341.224V349H215.799C215.567 349 215.391 348.964 215.271 348.892C215.151 348.812 215.055 348.668 214.983 348.46L214.731 347.392C214.419 347.68 214.111 347.936 213.807 348.16C213.503 348.376 213.183 348.564 212.847 348.724C212.519 348.876 212.167 348.992 211.791 349.072C211.415 349.152 210.999 349.192 210.543 349.192C210.063 349.192 209.611 349.128 209.187 349C208.771 348.864 208.407 348.66 208.095 348.388C207.783 348.116 207.535 347.776 207.351 347.368C207.175 346.96 207.087 346.484 207.087 345.94C207.087 345.46 207.215 345 207.471 344.56C207.735 344.112 208.159 343.712 208.743 343.36C209.335 343.008 210.103 342.72 211.047 342.496C211.999 342.272 213.167 342.144 214.551 342.112V341.224C214.551 340.304 214.355 339.616 213.963 339.16C213.571 338.704 212.995 338.476 212.235 338.476C211.723 338.476 211.291 338.54 210.939 338.668C210.595 338.796 210.295 338.94 210.039 339.1C209.791 339.252 209.571 339.392 209.379 339.52C209.195 339.648 209.003 339.712 208.803 339.712C208.643 339.712 208.503 339.668 208.383 339.58C208.271 339.492 208.179 339.388 208.107 339.268L207.687 338.512ZM222.316 346C222.7 346.504 223.116 346.856 223.564 347.056C224.012 347.256 224.5 347.356 225.028 347.356C226.116 347.356 226.952 346.968 227.536 346.192C228.128 345.416 228.424 344.244 228.424 342.676C228.424 341.228 228.164 340.168 227.644 339.496C227.124 338.816 226.388 338.476 225.436 338.476C224.764 338.476 224.18 338.628 223.684 338.932C223.196 339.236 222.74 339.668 222.316 340.228V346ZM222.316 338.488C222.82 337.928 223.392 337.476 224.032 337.132C224.672 336.788 225.4 336.616 226.216 336.616C226.928 336.616 227.568 336.756 228.136 337.036C228.712 337.308 229.2 337.704 229.6 338.224C230 338.736 230.308 339.36 230.524 340.096C230.74 340.832 230.848 341.664 230.848 342.592C230.848 343.576 230.724 344.472 230.476 345.28C230.236 346.088 229.888 346.78 229.432 347.356C228.984 347.932 228.436 348.38 227.788 348.7C227.14 349.012 226.412 349.168 225.604 349.168C225.212 349.168 224.852 349.128 224.524 349.048C224.196 348.976 223.892 348.868 223.612 348.724C223.34 348.58 223.088 348.404 222.856 348.196C222.624 347.988 222.404 347.752 222.196 347.488L222.088 348.508C222.024 348.836 221.824 349 221.488 349H219.976V331.288H222.316V338.488ZM235.853 331.288V349H233.501V331.288H235.853ZM247.271 341.548C247.271 341.084 247.203 340.656 247.067 340.264C246.939 339.872 246.747 339.532 246.491 339.244C246.235 338.956 245.923 338.732 245.555 338.572C245.187 338.412 244.763 338.332 244.283 338.332C243.299 338.332 242.523 338.616 241.955 339.184C241.395 339.752 241.039 340.54 240.887 341.548H247.271ZM249.203 347.26C248.915 347.596 248.583 347.888 248.207 348.136C247.831 348.376 247.431 348.572 247.007 348.724C246.583 348.876 246.143 348.988 245.687 349.06C245.239 349.132 244.795 349.168 244.355 349.168C243.515 349.168 242.735 349.028 242.015 348.748C241.303 348.46 240.683 348.044 240.155 347.5C239.635 346.948 239.227 346.268 238.931 345.46C238.643 344.644 238.499 343.708 238.499 342.652C238.499 341.804 238.631 341.016 238.895 340.288C239.159 339.552 239.535 338.912 240.023 338.368C240.519 337.824 241.123 337.396 241.835 337.084C242.547 336.772 243.347 336.616 244.235 336.616C244.979 336.616 245.663 336.74 246.287 336.988C246.919 337.228 247.463 337.58 247.919 338.044C248.375 338.508 248.731 339.08 248.987 339.76C249.251 340.44 249.383 341.216 249.383 342.088C249.383 342.448 249.343 342.692 249.263 342.82C249.183 342.94 249.035 343 248.819 343H240.827C240.851 343.728 240.955 344.364 241.139 344.908C241.323 345.444 241.575 345.892 241.895 346.252C242.223 346.612 242.611 346.88 243.059 347.056C243.507 347.232 244.007 347.32 244.559 347.32C245.079 347.32 245.527 347.26 245.903 347.14C246.287 347.02 246.615 346.892 246.887 346.756C247.167 346.612 247.399 346.48 247.583 346.36C247.775 346.24 247.943 346.18 248.087 346.18C248.279 346.18 248.427 346.252 248.531 346.396L249.203 347.26ZM264.219 342.184V349H261.675V342.184L255.363 331.768H257.607C257.831 331.768 258.011 331.824 258.147 331.936C258.283 332.04 258.395 332.18 258.483 332.356L262.227 338.8C262.379 339.096 262.515 339.376 262.635 339.64C262.763 339.904 262.875 340.164 262.971 340.42C263.059 340.164 263.159 339.904 263.271 339.64C263.391 339.376 263.527 339.096 263.679 338.8L267.411 332.356C267.491 332.212 267.599 332.08 267.735 331.96C267.879 331.832 268.059 331.768 268.275 331.768H270.531L264.219 342.184ZM277.575 341.548C277.575 341.084 277.507 340.656 277.371 340.264C277.243 339.872 277.051 339.532 276.795 339.244C276.539 338.956 276.227 338.732 275.859 338.572C275.491 338.412 275.067 338.332 274.587 338.332C273.603 338.332 272.827 338.616 272.259 339.184C271.699 339.752 271.343 340.54 271.191 341.548H277.575ZM279.507 347.26C279.219 347.596 278.887 347.888 278.511 348.136C278.135 348.376 277.735 348.572 277.311 348.724C276.887 348.876 276.447 348.988 275.991 349.06C275.543 349.132 275.099 349.168 274.659 349.168C273.819 349.168 273.039 349.028 272.319 348.748C271.607 348.46 270.987 348.044 270.459 347.5C269.939 346.948 269.531 346.268 269.235 345.46C268.947 344.644 268.803 343.708 268.803 342.652C268.803 341.804 268.935 341.016 269.199 340.288C269.463 339.552 269.839 338.912 270.327 338.368C270.823 337.824 271.427 337.396 272.139 337.084C272.851 336.772 273.651 336.616 274.539 336.616C275.283 336.616 275.967 336.74 276.591 336.988C277.223 337.228 277.767 337.58 278.223 338.044C278.679 338.508 279.035 339.08 279.291 339.76C279.555 340.44 279.687 341.216 279.687 342.088C279.687 342.448 279.647 342.692 279.567 342.82C279.487 342.94 279.339 343 279.123 343H271.131C271.155 343.728 271.259 344.364 271.443 344.908C271.627 345.444 271.879 345.892 272.199 346.252C272.527 346.612 272.915 346.88 273.363 347.056C273.811 347.232 274.311 347.32 274.863 347.32C275.383 347.32 275.831 347.26 276.207 347.14C276.591 347.02 276.919 346.892 277.191 346.756C277.471 346.612 277.703 346.48 277.887 346.36C278.079 346.24 278.247 346.18 278.391 346.18C278.583 346.18 278.731 346.252 278.835 346.396L279.507 347.26ZM285.925 349.192C284.941 349.192 284.181 348.916 283.645 348.364C283.117 347.812 282.853 347.024 282.853 346V338.704H281.437C281.301 338.704 281.185 338.664 281.089 338.584C281.001 338.496 280.957 338.368 280.957 338.2V337.252L282.937 336.976L283.465 333.34C283.497 333.204 283.557 333.1 283.645 333.028C283.741 332.948 283.861 332.908 284.005 332.908H285.193V337H288.649V338.704H285.193V345.844C285.193 346.324 285.309 346.684 285.541 346.924C285.781 347.156 286.085 347.272 286.453 347.272C286.669 347.272 286.853 347.244 287.005 347.188C287.165 347.132 287.301 347.072 287.413 347.008C287.525 346.936 287.621 346.872 287.701 346.816C287.781 346.76 287.853 346.732 287.917 346.732C287.997 346.732 288.057 346.752 288.097 346.792C288.145 346.824 288.193 346.88 288.241 346.96L288.937 348.088C288.553 348.44 288.097 348.712 287.569 348.904C287.041 349.096 286.493 349.192 285.925 349.192Z" fill="#858585"/>
<path d="M117 221.903V175.452L185.908 164.419L193.5 129L201.092 164.419L270 177.194V221.903L192.916 255L176.565 248.613L117 221.903Z" fill="#E8E8E8"/>
<path d="M194.086 126L111.447 147.103L105 175.828L185.881 164.69L191.156 133.621L194.086 128.931L201.119 164.69L282 177L274.381 147.103L194.086 126Z" fill="#D9D9D9"/>
<path d="M230.66 137L217.9 134.083L216.16 127.083L215 116L216.16 105.5L220.22 96.75L227.18 89.75L238.2 85.6667L257.34 79.8333L262.56 76.3333L260.82 72.8333L258.5 64.0833L260.82 60L265.46 61.1667L272.42 70.5L273 77.5L270.1 84.5L260.82 89.75L244 94.4167L230.66 101.417L226.02 111.917L227.76 128.833L230.66 137Z" fill="#FBFBFB"/>
<path d="M193 256L270.239 222.744V176.017M194.169 126.303L200.685 162.545C200.91 163.795 201.897 164.768 203.15 164.975L278.396 177.359C280.551 177.714 282.35 175.721 281.779 173.614L274.604 147.163L193 126" stroke="#9E9E9E" stroke-width="2"/>
<path d="M194 256L116.761 222.744V175.028M193.416 126.586L186.348 162.556C186.103 163.8 185.104 164.756 183.85 164.945L108.594 176.256C106.44 176.579 104.669 174.572 105.26 172.475L112.396 147.163L194 126" stroke="#9E9E9E" stroke-width="2"/>
<path d="M193 255V200.507M193 190.072V175" stroke="#9E9E9E" stroke-width="2" stroke-linecap="round"/>
<path d="M217.495 133.495C213.557 118.696 210.407 92.6027 239.939 85.5926C264.966 79.6519 264.617 77.2165 261.066 71.9109C259.164 69.0702 258.038 65.4781 259.613 62.4438C261.386 59.0265 264.951 57.9847 271.243 67.4832C275.636 74.1161 274.268 79.5269 270.709 83.6199C263.411 92.0142 250.559 91.6586 240.249 95.8347C233.29 98.6535 227.133 103.199 226.354 110.128C224.937 122.746 228.914 133.495 231.079 137" stroke="#9E9E9E" stroke-width="2"/>
<path d="M136.878 141L128.104 128.144C127.644 127.47 128.14 126.572 128.952 126.65C136.053 127.329 146.482 130.662 149.662 137.526M155.473 136.947C155.305 133.428 155.867 126.852 154.876 121.39C154.716 120.508 155.691 119.727 156.498 120.119C161.574 122.585 167.98 125.248 170 132.895" stroke="#9E9E9E" stroke-width="2"/>
<path d="M314.519 90.3093C315.16 89.9208 315.985 90.3505 316.035 91.0988L317.759 117.22C317.81 117.998 316.991 118.533 316.299 118.173L292.183 105.612C291.491 105.252 291.46 104.274 292.127 103.87L314.519 90.3093Z" fill="#D8D8D8"/>
<path d="M120.391 270.681C121.032 270.292 121.857 270.722 121.906 271.47L123.021 288.353C123.072 289.131 122.253 289.666 121.561 289.306L105.974 281.187C105.282 280.827 105.251 279.849 105.918 279.445L120.391 270.681Z" fill="#D8D8D8"/>
<path opacity="0.3" d="M75.1136 144.598C75.2549 143.861 76.1266 143.536 76.7152 144.001L90.6939 155.035C91.306 155.518 91.1541 156.485 90.4233 156.757L73.0888 163.213C72.358 163.485 71.6108 162.853 71.7577 162.087L75.1136 144.598Z" fill="#D9D9D9"/>
<path d="M327.955 125.274C328.704 125.24 329.222 126.013 328.907 126.693L325.345 134.376C325.017 135.083 324.041 135.16 323.607 134.512L318.709 127.206C318.275 126.558 318.717 125.684 319.496 125.65L327.955 125.274Z" fill="#9B9B9B"/>
<path d="M294.128 254.83C294.814 255.136 294.931 256.058 294.345 256.526L287.724 261.805C287.114 262.291 286.208 261.923 286.109 261.15L284.994 252.425C284.896 251.652 285.681 251.068 286.393 251.385L294.128 254.83Z" fill="#9B9B9B"/>
<rect x="87.6245" y="129.795" width="7.32995" height="7.32995" rx="1" transform="rotate(18.3796 87.6245 129.795)" fill="#9B9B9B"/>
<rect opacity="0.4" x="291.93" y="226.223" width="25.5345" height="25.5345" rx="1" transform="rotate(-36.6836 291.93 226.223)" fill="#DADADA"/>
<circle cx="125" cy="69" r="14" fill="#F0F0F0"/>
<ellipse opacity="0.4" cx="283" cy="120.5" rx="6" ry="5.5" fill="#DADADA"/>
</svg>
